# xmcd
#
# Track frame offsets: 
#        150
#        25088
#        47325
#        65847
#        85958
#        102086
#        120763
#        137748
#        158473
#        178638
#        201443
#        217106
#        236804
#
# Disc length: 3437 seconds
#
# Revision: 0
# Processed by: cddbd v1.5.2PL0 Copyright (c) Steve Scherf et al.
# Submitted via: ExactAudioCopy v1.0b3
#
DISCID=ad0d6b0d
DTITLE=群星 - DTS ES 正品 HIFI一号店CD1
DYEAR=2014
DGENRE=DTS ES
TTITLE0=雷婷 - 存在
TTITLE1=勤琴 - 再见青春
TTITLE2=孙露 - 烟雨蒙蒙
TTITLE3=小郡 - 寂寞犯的错
TTITLE4=孙露 - 我的歌声里
TTITLE5=乌兰托娅 - 梦高原
TTITLE6=任震昊&彭晓晖 - 错怪
TTITLE7=雷婷 - 爱恨情歌
TTITLE8=任雪晨 -  你是我的眼
TTITLE9=龚玥 - 三寸天堂
TTITLE10=刘紫玲 - 落花
TTITLE11=依雪 - 不想回家的女人
TTITLE12=孙露 - 分手了别来打扰我
EXTD=
EXTT0=
EXTT1=
EXTT2=
EXTT3=
EXTT4=
EXTT5=
EXTT6=
EXTT7=
EXTT8=
EXTT9=
EXTT10=
EXTT11=
EXTT12=
PLAYORDER=
